<svg width="100" height="100" fill="none" xmlns="http://www.w3.org/2000/svg"><path d="M39.372 47.43 18.75 21.094 8.411 47.43h30.961Z" fill="#F4900C"/><path d="m49.828 15.373-18.23 34.413h36.458L49.828 15.373Z" fill="#F4900C"/><path d="M60.628 47.43 81.25 21.094 91.59 47.43H60.628Z" fill="#F4900C"/><path d="M79.635 42.195 66.352 9.786 50.019 42.198l-.02.008-.02-.011L33.647 9.784l-13.283 32.41C11.658 30.093 3.555 22.34 3.555 22.34s4.777 35.3 4.777 69.328h83.334c0-34.028 4.778-69.328 4.778-69.328s-8.103 7.753-16.809 19.856Z" fill="#FFCC4D"/><path d="M49.88 71.355c5.658 0 10.245-4.587 10.245-10.244 0-5.658-4.587-10.245-10.245-10.245-5.658 0-10.244 4.587-10.244 10.245 0 5.658 4.586 10.244 10.244 10.244Z" fill="#5C913B"/><path d="M73.508 67.811a6.7 6.7 0 1 0 0-13.4 6.7 6.7 0 0 0 0 13.4Z" fill="#981CEB"/><path d="M91.256 66.628a5.517 5.517 0 1 0 0-11.034 5.517 5.517 0 0 0 0 11.034Z" fill="#DD2E44"/><path d="M26.25 67.811a6.7 6.7 0 1 0 0-13.4 6.7 6.7 0 0 0 0 13.4Z" fill="#981CEB"/><path d="M8.503 66.628a5.517 5.517 0 1 0 0-11.034 5.517 5.517 0 0 0 0 11.034Z" fill="#DD2E44"/><path d="M91.667 94.444H8.333a2.777 2.777 0 1 1 0-5.556h83.334a2.775 2.775 0 0 1 2.778 2.778 2.775 2.775 0 0 1-2.778 2.778Zm0-9.683H8.333a2.777 2.777 0 1 1 0-5.556h83.334a2.775 2.775 0 0 1 2.778 2.778 2.775 2.775 0 0 1-2.778 2.778Z" fill="#FFAC33"/><path d="M4.02 26.247a3.908 3.908 0 1 0 0-7.817 3.908 3.908 0 0 0 0 7.817Z" fill="#FFCC4D"/><path d="M18.75 24.406a3.311 3.311 0 1 0 0-6.622 3.311 3.311 0 0 0 0 6.622Z" fill="#F4900C"/><path d="M33.647 14.742a4.956 4.956 0 1 0 0-9.911 4.956 4.956 0 0 0 0 9.911ZM95.98 26.247a3.908 3.908 0 1 0 0-7.817 3.908 3.908 0 0 0 0 7.817Z" fill="#FFCC4D"/><path d="M81.25 24.406a3.311 3.311 0 1 0 0-6.622 3.311 3.311 0 0 0 0 6.622Z" fill="#F4900C"/><path d="M66.353 14.742a4.956 4.956 0 1 0 0-9.911 4.956 4.956 0 0 0 0 9.911Z" fill="#FFCC4D"/><path d="M49.828 20.328a4.956 4.956 0 1 0 0-9.912 4.956 4.956 0 0 0 0 9.912Z" fill="#F4900C"/></svg>